<svg xmlns="http://www.w3.org/2000/svg" width="32" height="32" viewBox="0 0 32 32">
  <path d="M7.5 6.5a1 1 0 0 0-1 1v17a1 1 0 0 0 1 1h17a1 1 0 0 0 1-1v-17a1 1 0 0 0-1-1h-16zm2 3h5v2a1 1 0 0 0 1 1h1a1 1 0 0 0 1-1v-2h5v5h-2a1 1 0 0 0-1 1v1a1 1 0 0 0 1 1h2v5h-5v-2a1 1 0 0 0-1-1h-1a1 1 0 0 0-1 1v2h-5v-5h2a1 1 0 0 0 1-1v-1a1 1 0 0 0-1-1h-2z" style="color:#000;fill:#000;fill-opacity:1;stroke-linecap:round;stroke-linejoin:round;-inkscape-stroke:none;opacity:.2;filter:url(#a)"/>
  <path d="M7 6a1 1 0 0 0-1 1v17a1 1 0 0 0 1 1h17a1 1 0 0 0 1-1V7a1 1 0 0 0-1-1H8Zm2 3h5v2a1 1 0 0 0 1 1h1a1 1 0 0 0 1-1V9h5v5h-2a1 1 0 0 0-1 1v1a1 1 0 0 0 1 1h2v5h-5v-2a1 1 0 0 0-1-1h-1a1 1 0 0 0-1 1v2H9v-5h2a1 1 0 0 0 1-1v-1a1 1 0 0 0-1-1H9Z" style="color:#000;fill:#ededed;stroke-linecap:round;stroke-linejoin:round;-inkscape-stroke:none;fill-opacity:1"/>
  <path d="M7 7v17h17V7H8Zm1 1h7v3h1V8h7v7h-3v1h3v7h-7v-3h-1v3H8v-7h3v-1H8Z" style="opacity:1;fill:#264653;fill-opacity:1;stroke:none;stroke-width:2;stroke-linecap:round;stroke-linejoin:round"/>
  <defs>
    <filter id="a" width="1.144" height="1.144" x="-.072" y="-.072" style="color-interpolation-filters:sRGB">
      <feGaussianBlur stdDeviation=".57"/>
    </filter>
  </defs>
</svg>
