<svg xmlns="http://www.w3.org/2000/svg" width="32" height="32" viewBox="0 0 32 32">
  <defs>
    <filter id="a" width="1.131" height="1.16" x="-.07" y="-.08" style="color-interpolation-filters:sRGB">
      <feGaussianBlur stdDeviation=".6"/>
    </filter>
  </defs>
  <path d="M23.261 7.5a2.2 2.2 0 0 0-1.119.277c-.99.55-1.479 1.544-1.538 2.452-.054.825.141 1.528.271 2.084.129.548.198 1.045.192 1.16-.015.007-.059.025-.04.029.033.006-.055-.018-.265-.18-.334-.257-.918-.944-1.564-1.71-.648-.767-1.42-1.652-2.483-2.309a5.36 5.36 0 0 0-4.04-.678 1 .998 0 0 0-.058.013c-1.354.367-2.091 1.544-2.587 2.7-.395.918-.596 2.03-.787 3.138-.005 0-.003-.002-.008-.002a1 .998 0 0 0-.022 0H6.5a1 .998 0 0 0-1 .998v.998a1 .998 0 0 0 1 .998h2.493c-.094 2.172.013 4.33.998 5.92a1 .998 0 0 0 .003.006l.01.015a1 .998 0 0 0 .051.07c.752 1.034 1.881 1.59 2.999 1.844a7.06 7.06 0 0 0 3.354-.052c1.068-.285 2.15-.861 2.755-1.944.63-1.128.469-2.572-.338-3.822-.812-1.258-2.298-2.297-4.02-3.243-.868-.477-1.778-.766-2.678-1.057.165-1.015.377-2.025.661-2.688.323-.751.804-1.017.604-.966.756-.16 1.187-.048 1.747.298.56.345 1.168.981 1.769 1.694.6.71 1.196 1.517 2.023 2.153.891.686 2.252 1.06 3.508.43a2.96 2.96 0 0 0 1.619-2.408c.065-.826-.13-1.532-.26-2.09a7 7 0 0 1-.15-.9c.075.043.118.055.193.105.482.324.918.733.918.733l.359.343a1 .998 0 0 0 1.413-.031l.692-.721a1 .998 0 0 0-.032-1.411l-.359-.343-.002-.002a11 11 0 0 0-1.314-1.051c-.368-.247-.801-.506-1.318-.68a3 3 0 0 0-.937-.17m.322 2.87c-.036.062-.088.082.018.023-.007.004-.003 0-.01.004 0-.007.011-.06-.008-.028m1.853.461.012.01a1 .998 0 0 0 0 .002zm-13.415 7.506c.45.182.908.312 1.337.548.727.4 1.413.86 1.947 1.283s.928.848 1 .959c.21.325.26.523.27.604.008.081.008.071-.03.14-.03.054-.358.358-.91.505a4.3 4.3 0 0 1-1.913.03c-.583-.133-.995-.408-1.195-.661-.162-.286-.37-.961-.47-1.825-.055-.465-.026-1.045-.036-1.583" style="color:#000;font-style:normal;font-variant:normal;font-weight:400;font-stretch:normal;font-size:medium;line-height:normal;font-family:sans-serif;font-variant-ligatures:normal;font-variant-position:normal;font-variant-caps:normal;font-variant-numeric:normal;font-variant-alternates:normal;font-feature-settings:normal;text-indent:0;text-align:start;text-decoration:none;text-decoration-line:none;text-decoration-style:solid;text-decoration-color:#000;letter-spacing:normal;word-spacing:normal;text-transform:none;writing-mode:lr-tb;direction:ltr;text-orientation:mixed;dominant-baseline:auto;baseline-shift:baseline;text-anchor:start;white-space:normal;shape-padding:0;clip-rule:nonzero;display:inline;overflow:visible;visibility:visible;opacity:.2;isolation:auto;mix-blend-mode:normal;color-interpolation:sRGB;color-interpolation-filters:linearRGB;solid-color:#000;solid-opacity:1;vector-effect:none;fill:#000;fill-opacity:1;fill-rule:nonzero;stroke:none;stroke-width:1.99760854;stroke-linecap:round;stroke-linejoin:round;stroke-miterlimit:4;stroke-dasharray:none;stroke-dashoffset:0;stroke-opacity:1;color-rendering:auto;image-rendering:auto;shape-rendering:auto;text-rendering:auto;enable-background:accumulate;filter:url(#a)"/>
  <path d="M22.761 7a2.2 2.2 0 0 0-1.119.277c-.99.55-1.479 1.544-1.538 2.452-.054.825.141 1.528.271 2.084.129.548.198 1.045.192 1.16-.015.007-.059.025-.04.029.033.006-.055-.018-.265-.18-.334-.257-.918-.944-1.564-1.71-.648-.767-1.42-1.652-2.483-2.309a5.36 5.36 0 0 0-4.04-.678 1 .998 0 0 0-.058.013c-1.354.367-2.091 1.544-2.587 2.7-.395.918-.596 2.03-.787 3.138-.005 0-.003-.002-.008-.002a1 .998 0 0 0-.022 0H6a1 .998 0 0 0-1 .998v.998a1 .998 0 0 0 1 .998h2.493c-.094 2.172.013 4.33.998 5.92a1 .998 0 0 0 .003.006l.01.015a1 .998 0 0 0 .051.07c.752 1.034 1.881 1.59 2.999 1.844a7.06 7.06 0 0 0 3.354-.052c1.068-.285 2.15-.861 2.755-1.944.63-1.128.469-2.572-.338-3.822-.812-1.258-2.298-2.297-4.02-3.243-.868-.477-1.777-.766-2.678-1.057.165-1.015.377-2.025.661-2.688.323-.751.804-1.017.604-.966.756-.16 1.187-.048 1.747.298.56.345 1.168.981 1.769 1.694.6.71 1.196 1.517 2.023 2.153.891.686 2.252 1.06 3.508.43a2.96 2.96 0 0 0 1.619-2.408c.065-.826-.13-1.532-.26-2.09a7 7 0 0 1-.15-.9c.075.043.118.055.193.105.482.324.918.733.918.733l.359.343a1 .998 0 0 0 1.413-.03l.692-.722a1 .998 0 0 0-.032-1.411l-.359-.343-.002-.002a11 11 0 0 0-1.314-1.051c-.368-.247-.801-.506-1.318-.68a3 3 0 0 0-.937-.17m.322 2.87c-.036.063-.088.082.018.023-.007.004-.003 0-.01.004 0-.007.011-.06-.008-.028m1.853.461.012.01a1 .998 0 0 0 0 .002zm-13.415 7.506c.45.182.908.312 1.337.548.727.4 1.413.86 1.947 1.283s.928.848 1 .959c.21.325.26.523.27.604.008.081.008.071-.03.14-.03.054-.358.358-.91.505a4.3 4.3 0 0 1-1.913.03c-.583-.133-.995-.408-1.195-.661-.162-.286-.37-.961-.47-1.825-.055-.465-.026-1.045-.036-1.583" style="color:#000;font-style:normal;font-variant:normal;font-weight:400;font-stretch:normal;font-size:medium;line-height:normal;font-family:sans-serif;font-variant-ligatures:normal;font-variant-position:normal;font-variant-caps:normal;font-variant-numeric:normal;font-variant-alternates:normal;font-feature-settings:normal;text-indent:0;text-align:start;text-decoration:none;text-decoration-line:none;text-decoration-style:solid;text-decoration-color:#000;letter-spacing:normal;word-spacing:normal;text-transform:none;writing-mode:lr-tb;direction:ltr;text-orientation:mixed;dominant-baseline:auto;baseline-shift:baseline;text-anchor:start;white-space:normal;shape-padding:0;clip-rule:nonzero;display:inline;overflow:visible;visibility:visible;opacity:1;isolation:auto;mix-blend-mode:normal;color-interpolation:sRGB;color-interpolation-filters:linearRGB;solid-color:#000;solid-opacity:1;vector-effect:none;fill:#ededed;fill-opacity:1;fill-rule:nonzero;stroke:none;stroke-width:1.99760854;stroke-linecap:round;stroke-linejoin:round;stroke-miterlimit:4;stroke-dasharray:none;stroke-dashoffset:0;stroke-opacity:1;color-rendering:auto;image-rendering:auto;shape-rendering:auto;text-rendering:auto;enable-background:accumulate"/>
  <path d="M6.5 15.5h2.205c2.886.063 7.342 2.766 8.364 4.354 2.386 3.703-4.401 4.904-6.3 2.288-1.774-2.87-.815-11.85 1.742-12.542 4.626-1.054 5.912 6.15 8.76 4.716 2.2-1.107-1.045-4.519 1.108-5.716C23.3 8.087 25.3 10 25.3 10" style="fill:none;stroke:#264653;stroke-width:1;stroke-linecap:square;stroke-miterlimit:4;stroke-dasharray:none;stroke-opacity:1"/>
</svg>
