<svg xmlns="http://www.w3.org/2000/svg" xmlns:xlink="http://www.w3.org/1999/xlink" width="32" height="32" viewBox="0 0 32 32">
  <defs>
    <filter id="b" width="1.144" height="1.144" x="-.072" y="-.072" style="color-interpolation-filters:sRGB">
      <feGaussianBlur stdDeviation=".51"/>
    </filter>
    <filter id="c" width="1.144" height="1.144" x="-.072" y="-.072" style="color-interpolation-filters:sRGB">
      <feGaussianBlur stdDeviation=".45"/>
    </filter>
    <filter id="e" width="1.144" height="1.144" x="-.072" y="-.072" style="color-interpolation-filters:sRGB">
      <feGaussianBlur stdDeviation=".27"/>
    </filter>
    <linearGradient xlink:href="#a" id="d" x1="21" x2="25" y1="16" y2="28" gradientUnits="userSpaceOnUse"/>
    <linearGradient id="a">
      <stop offset="0" style="stop-color:#fff;stop-opacity:1"/>
      <stop offset="1" style="stop-color:#fff;stop-opacity:0"/>
    </linearGradient>
  </defs>
  <path d="M18.838 7.505c-.72.045-1.294.42-1.718.935-.588-.375-.977-.674-1.85-.671h-.001v.002c-.84.051-1.442.559-1.853 1.214-.467-.318-1.023-.522-1.63-.478h-.016a2.48 2.48 0 0 0-2.236 2.91l.346 1.902-.037.025c-.478.358-1.205.837-1.75 1.64-.544.805-.802 1.992-.39 3.292.448 1.418 1.287 2.871 2.241 4.039.478.583.983 1.094 1.519 1.486s1.11.704 1.822.699h8.807a1 1 0 0 0 .913-.588c1.814-3.999 1.476-7.5 1.46-9.91l-.012-1.642a3.16 3.16 0 0 0-.631-1.908c-.422-.555-1.162-.996-1.992-.94-.196.013-.323.158-.5.215-.163-1.277-1.15-2.307-2.492-2.222" style="color:#000;font-style:normal;font-variant:normal;font-weight:400;font-stretch:normal;font-size:medium;line-height:normal;font-family:sans-serif;font-variant-ligatures:normal;font-variant-position:normal;font-variant-caps:normal;font-variant-numeric:normal;font-variant-alternates:normal;font-feature-settings:normal;text-indent:0;text-align:start;text-decoration:none;text-decoration-line:none;text-decoration-style:solid;text-decoration-color:#000;letter-spacing:normal;word-spacing:normal;text-transform:none;writing-mode:lr-tb;direction:ltr;text-orientation:mixed;dominant-baseline:auto;baseline-shift:baseline;text-anchor:start;white-space:normal;shape-padding:0;clip-rule:nonzero;display:inline;overflow:visible;visibility:visible;opacity:.2;isolation:auto;mix-blend-mode:normal;color-interpolation:sRGB;color-interpolation-filters:linearRGB;solid-color:#000;solid-opacity:1;vector-effect:none;fill:#000;fill-opacity:1;fill-rule:nonzero;stroke:none;stroke-width:2.0006876;stroke-linecap:round;stroke-linejoin:round;stroke-miterlimit:4;stroke-dasharray:none;stroke-dashoffset:0;stroke-opacity:1;color-rendering:auto;image-rendering:auto;shape-rendering:auto;text-rendering:auto;enable-background:accumulate;filter:url(#b)"/>
  <path d="M18.338 7.005c-.72.045-1.294.42-1.718.935-.588-.375-.977-.674-1.85-.671h-.001v.002c-.84.051-1.442.559-1.853 1.214-.467-.318-1.023-.522-1.63-.478h-.016a2.48 2.48 0 0 0-2.236 2.91l.346 1.902-.037.025c-.478.358-1.205.837-1.75 1.64-.544.805-.802 1.992-.39 3.292.448 1.418 1.287 2.871 2.241 4.039.478.583.983 1.094 1.519 1.486s1.11.704 1.822.699h8.807a1 1 0 0 0 .913-.588c1.814-3.999 1.476-7.5 1.46-9.91l-.012-1.642a3.16 3.16 0 0 0-.631-1.908c-.422-.555-1.162-.996-1.992-.94-.196.013-.323.158-.5.215-.163-1.277-1.15-2.307-2.492-2.222" style="color:#000;font-style:normal;font-variant:normal;font-weight:400;font-stretch:normal;font-size:medium;line-height:normal;font-family:sans-serif;font-variant-ligatures:normal;font-variant-position:normal;font-variant-caps:normal;font-variant-numeric:normal;font-variant-alternates:normal;font-feature-settings:normal;text-indent:0;text-align:start;text-decoration:none;text-decoration-line:none;text-decoration-style:solid;text-decoration-color:#000;letter-spacing:normal;word-spacing:normal;text-transform:none;writing-mode:lr-tb;direction:ltr;text-orientation:mixed;dominant-baseline:auto;baseline-shift:baseline;text-anchor:start;white-space:normal;shape-padding:0;clip-rule:nonzero;display:inline;overflow:visible;visibility:visible;opacity:1;isolation:auto;mix-blend-mode:normal;color-interpolation:sRGB;color-interpolation-filters:linearRGB;solid-color:#000;solid-opacity:1;vector-effect:none;fill:#ededed;fill-opacity:1;fill-rule:nonzero;stroke:none;stroke-width:2.0006876;stroke-linecap:round;stroke-linejoin:round;stroke-miterlimit:4;stroke-dasharray:none;stroke-dashoffset:0;stroke-opacity:1;color-rendering:auto;image-rendering:auto;shape-rendering:auto;text-rendering:auto;enable-background:accumulate"/>
  <path d="M14.84 8.265c-.784.048-1.452.802-1.402 1.58l.097 1.381c.024.351-.376.225-.412-.045l-.12-.908c-.107-.736-.888-1.325-1.633-1.27-.82.073-1.48.927-1.339 1.734l.64 3.526c.005.126-.03.774-.03.774l-.686-1.394c-1 .75-2.455 1.709-1.785 3.83.794 2.511 3.166 5.536 4.618 5.527h8.809c1.704-3.76 1.386-7.002 1.369-9.49l-.011-1.645c-.006-.942-.612-1.928-1.556-1.859-.639.037-1.125.527-1.27 1.147l-.176.631c-.075.272-.252.163-.224-.062l.265-2.14c.055-.84-.743-1.634-1.587-1.58-.73.046-1.372.698-1.401 1.426l-.134 1.489c-.032.348-.359.356-.38-.031l-.065-1.195c-.032-.79-.795-1.475-1.588-1.425z" style="display:inline;fill:#264653;fill-opacity:1;stroke:none;stroke-width:.9937405"/>
  <path d="M30.5 23a7.5 7.5 0 0 1-7.5 7.5 7.5 7.5 0 0 1-7.5-7.5 7.5 7.5 0 0 1 7.5-7.5 7.5 7.5 0 0 1 7.5 7.5" style="opacity:.2;fill:#000;fill-opacity:1;stroke:none;stroke-width:2.72727251;stroke-linecap:round;stroke-linejoin:round;stroke-miterlimit:4;stroke-dasharray:none;stroke-opacity:1;filter:url(#c)"/>
  <path d="M30 22.5a7.5 7.5 0 0 1-7.5 7.5 7.5 7.5 0 0 1-7.5-7.5 7.5 7.5 0 0 1 7.5-7.5 7.5 7.5 0 0 1 7.5 7.5" style="opacity:1;fill:#ededed;fill-opacity:1;stroke:none;stroke-width:2.72727251;stroke-linecap:round;stroke-linejoin:round;stroke-miterlimit:4;stroke-dasharray:none;stroke-opacity:1"/>
  <path d="M29 22.5a6.5 6.5 0 0 1-6.5 6.5 6.5 6.5 0 0 1-6.5-6.5 6.5 6.5 0 0 1 6.5-6.5 6.5 6.5 0 0 1 6.5 6.5" style="opacity:1;fill:#7753c5;fill-opacity:1;stroke:none;stroke-width:2.36363626;stroke-linecap:round;stroke-linejoin:round;stroke-miterlimit:4;stroke-dasharray:none;stroke-opacity:1"/>
  <path d="M29 22.5a6.5 6.5 0 0 1-6.5 6.5 6.5 6.5 0 0 1-6.5-6.5 6.5 6.5 0 0 1 6.5-6.5 6.5 6.5 0 0 1 6.5 6.5" style="opacity:.2;fill:url(#d);fill-opacity:1;stroke:none;stroke-width:2.36363626;stroke-linecap:round;stroke-linejoin:round;stroke-miterlimit:4;stroke-dasharray:none;stroke-opacity:1"/>
  <path d="M20.813 27.491a1.7 1.7 0 0 1-.829-.327c-.135-.099-1.05-1.014-1.148-1.149a1.705 1.705 0 0 1 .004-2.035 156 156 0 0 1 2.672-2.685 1.66 1.66 0 0 1 1.088-.393q.605 0 1.075.382c.04.033.265.252.5.487l.427.428-.399.4-.4.4-.431-.43c-.459-.457-.464-.461-.6-.509a.6.6 0 0 0-.383.012c-.114.048-.144.076-1.412 1.346l-1.246 1.248-.039.078a.57.57 0 0 0 .02.55c.042.072.898.932.978.982.172.11.39.12.577.023.057-.03.11-.08.526-.493l.462-.46.079.043c.222.118.478.202.737.242.053.007.18.017.283.02l.187.006-.7.702c-.387.386-.732.727-.767.756a1.7 1.7 0 0 1-1.263.376zm2.338-2.412a1.7 1.7 0 0 1-.847-.384 18 18 0 0 1-.494-.482l-.413-.415.399-.4.4-.399.427.425c.458.455.478.472.61.515.052.016.086.02.17.02.118 0 .16-.01.272-.067.06-.03.15-.118 1.307-1.274.932-.931 1.254-1.258 1.288-1.308a.52.52 0 0 0 .094-.315c0-.079 0-.11-.024-.171-.043-.133-.075-.171-.558-.652-.437-.435-.445-.443-.522-.48a.56.56 0 0 0-.528.006c-.059.03-.111.079-.526.492l-.462.46-.09-.047c-.227-.12-.5-.206-.769-.243a3 3 0 0 0-.255-.012c-.094 0-.172-.003-.172-.005 0-.004.33-.334.733-.736.777-.776.793-.79.99-.9.161-.09.348-.154.546-.19.133-.023.424-.023.555 0 .195.036.383.102.542.19.187.105.231.143.743.652.267.266.516.52.553.566.507.622.507 1.52 0 2.14-.038.046-.642.657-1.343 1.357-1.308 1.307-1.335 1.332-1.507 1.436a2 2 0 0 1-.475.193c-.17.042-.467.055-.643.028z" style="opacity:.2;fill:#000;stroke-width:.00918723;filter:url(#e)"/>
  <path d="M20.313 26.991a1.7 1.7 0 0 1-.829-.327c-.135-.099-1.05-1.014-1.148-1.149a1.705 1.705 0 0 1 .004-2.035 156 156 0 0 1 2.672-2.685 1.66 1.66 0 0 1 1.088-.393q.604 0 1.075.382c.04.032.265.252.5.487l.427.428-.4.4-.398.4-.432-.43c-.459-.457-.464-.461-.6-.509a.6.6 0 0 0-.383.012c-.114.048-.144.076-1.412 1.346l-1.246 1.248-.039.078a.57.57 0 0 0 .02.55c.042.072.898.932.978.982.172.11.39.12.577.023.057-.03.11-.08.526-.493l.462-.46.079.043c.222.118.478.202.737.242.053.007.18.017.283.02l.187.006-.7.702c-.387.386-.732.727-.767.756a1.7 1.7 0 0 1-1.263.376zm2.338-2.412a1.7 1.7 0 0 1-.847-.384 18 18 0 0 1-.494-.482l-.413-.415.399-.4.4-.399.427.425c.458.455.478.472.61.515.052.016.086.02.17.02.118 0 .16-.01.272-.067.06-.03.15-.118 1.307-1.274.932-.931 1.254-1.258 1.288-1.308a.52.52 0 0 0 .094-.315c0-.079 0-.11-.024-.172-.043-.132-.075-.17-.558-.651-.437-.435-.445-.443-.522-.48a.56.56 0 0 0-.528.006c-.059.03-.111.079-.526.492l-.462.46-.09-.047c-.227-.12-.5-.206-.769-.243a3 3 0 0 0-.255-.012c-.094 0-.172-.003-.172-.005 0-.004.33-.334.733-.736.777-.776.793-.79.99-.9.16-.09.348-.154.546-.19.133-.023.424-.023.555 0 .195.036.383.102.542.19.187.105.231.143.743.652.267.266.516.52.553.566.507.622.507 1.52 0 2.14-.038.046-.642.657-1.343 1.357-1.308 1.307-1.335 1.332-1.507 1.436a2 2 0 0 1-.475.193c-.17.042-.467.055-.643.028z" style="fill:#fff;stroke-width:.00918723"/>
</svg>
