<svg xmlns="http://www.w3.org/2000/svg" xmlns:xlink="http://www.w3.org/1999/xlink" width="32" height="32" viewBox="0 0 32 32">
  <defs>
    <linearGradient xlink:href="#a" id="c" x1="21" x2="25" y1="16" y2="28" gradientTransform="translate(-18.615 -18.615)scale(1.53846)" gradientUnits="userSpaceOnUse"/>
    <linearGradient id="a">
      <stop offset="0" style="stop-color:#fff;stop-opacity:1"/>
      <stop offset="1" style="stop-color:#fff;stop-opacity:0"/>
    </linearGradient>
    <filter id="d" width="1.143" height="1.145" x="-.07" y="-.07" style="color-interpolation-filters:sRGB">
      <feGaussianBlur stdDeviation=".476"/>
    </filter>
    <filter id="b" width="1.144" height="1.144" x="-.07" y="-.07" style="color-interpolation-filters:sRGB">
      <feGaussianBlur stdDeviation=".66"/>
    </filter>
  </defs>
  <circle cx="16.5" cy="16.5" r="11" style="opacity:.2;fill:#000;fill-opacity:1;stroke:none;stroke-width:2.19999981;stroke-linecap:round;stroke-linejoin:round;stroke-miterlimit:4;stroke-dasharray:none;stroke-opacity:1;filter:url(#b)"/>
  <circle cx="16" cy="16" r="11" style="opacity:1;fill:#ededed;fill-opacity:1;stroke:none;stroke-width:2.19999981;stroke-linecap:round;stroke-linejoin:round;stroke-miterlimit:4;stroke-dasharray:none;stroke-opacity:1"/>
  <circle cx="16" cy="16" r="10" style="opacity:1;fill:#03adaf;fill-opacity:1;stroke:none;stroke-width:1.99999988;stroke-linecap:round;stroke-linejoin:round;stroke-miterlimit:4;stroke-dasharray:none;stroke-opacity:1"/>
  <path d="M26 16a10 10 0 0 1-10 10A10 10 0 0 1 6 16 10 10 0 0 1 16 6a10 10 0 0 1 10 10" style="opacity:.2;fill:url(#c);fill-opacity:1;stroke:none;stroke-width:3.63636351;stroke-linecap:round;stroke-linejoin:round;stroke-miterlimit:4;stroke-dasharray:none;stroke-opacity:1"/>
  <path d="M15.014 8.638a.499.503 75 0 0-.072.01 8.09 8.09 0 0 0-5.377 3.877 7.94 7.94 0 0 0-.635 6.557.499.503 75 0 0 .603.318.499.503 75 0 0 .348-.646 6.94 6.94 0 0 1 .553-5.735 7.09 7.09 0 0 1 4.709-3.394.499.503 75 0 0-.13-.987m2.148 2.915a.496.5 15 0 0-.045.998 3.95 3.95 0 0 1 2.862 1.941 4.01 4.01 0 0 1 .257 3.465.496.5 15 0 0 .338.668.496.5 15 0 0 .584-.305 5.02 5.02 0 0 0-.32-4.334 4.94 4.94 0 0 0-3.578-2.426.496.5 15 0 0-.098-.007m6.414 2.037a.498.503 75 0 0-.453.672 6.92 6.92 0 0 1-.554 5.722 7.09 7.09 0 0 1-4.71 3.389.499.504 75 1 0 .202.976q.424-.088.832-.22a8.09 8.09 0 0 0 4.543-3.653 7.91 7.91 0 0 0 .638-6.543.498.503 75 0 0-.498-.343m-11.265.765a.496.498 15 0 0-.471.342 4.99 4.99 0 0 0 .326 4.318 4.95 4.95 0 0 0 3.578 2.42.496.498 15 1 0 .143-.986 3.96 3.96 0 0 1-2.863-1.937 3.99 3.99 0 0 1-.262-3.454.496.498 15 0 0-.451-.703" style="color:#000;font-style:normal;font-variant:normal;font-weight:400;font-stretch:normal;font-size:medium;line-height:normal;font-family:sans-serif;font-variant-ligatures:normal;font-variant-position:normal;font-variant-caps:normal;font-variant-numeric:normal;font-variant-alternates:normal;font-feature-settings:normal;text-indent:0;text-align:start;text-decoration:none;text-decoration-line:none;text-decoration-style:solid;text-decoration-color:#000;letter-spacing:normal;word-spacing:normal;text-transform:none;writing-mode:lr-tb;direction:ltr;text-orientation:mixed;dominant-baseline:auto;baseline-shift:baseline;text-anchor:start;white-space:normal;shape-padding:0;clip-rule:nonzero;display:inline;overflow:visible;visibility:visible;opacity:.2;isolation:auto;mix-blend-mode:normal;color-interpolation:sRGB;color-interpolation-filters:linearRGB;solid-color:#000;solid-opacity:1;vector-effect:none;fill:#000;fill-opacity:1;fill-rule:nonzero;stroke:none;stroke-width:1.0006907;stroke-linecap:round;stroke-linejoin:round;stroke-miterlimit:4;stroke-dasharray:none;stroke-dashoffset:0;stroke-opacity:1;color-rendering:auto;image-rendering:auto;shape-rendering:auto;text-rendering:auto;enable-background:accumulate;filter:url(#d)"/>
  <path d="M14.514 8.139a.499.503 75 0 0-.073.01 8.09 8.09 0 0 0-5.377 3.876 7.94 7.94 0 0 0-.634 6.557.499.503 75 0 0 .603.318.499.503 75 0 0 .348-.646 6.94 6.94 0 0 1 .553-5.734 7.09 7.09 0 0 1 4.709-3.395.499.503 75 0 0-.13-.986m2.148 2.914a.496.5 15 0 0-.045.998 3.95 3.95 0 0 1 2.862 1.941 4.01 4.01 0 0 1 .257 3.465.496.5 15 0 0 .338.668.496.5 15 0 0 .584-.305 5.02 5.02 0 0 0-.32-4.334 4.94 4.94 0 0 0-3.578-2.425.496.5 15 0 0-.098-.008m6.414 2.037a.498.503 75 0 0-.453.672 6.92 6.92 0 0 1-.555 5.722 7.09 7.09 0 0 1-4.709 3.389.498.503 75 1 0 .202.977q.424-.09.832-.221a8.09 8.09 0 0 0 4.543-3.652 7.91 7.91 0 0 0 .638-6.543.498.503 75 0 0-.498-.344m-11.265.765a.496.498 15 0 0-.471.342 4.99 4.99 0 0 0 .326 4.319 4.95 4.95 0 0 0 3.578 2.42.496.498 15 1 0 .143-.987 3.96 3.96 0 0 1-2.864-1.937 3.99 3.99 0 0 1-.261-3.453.496.498 15 0 0-.451-.704" style="color:#000;font-style:normal;font-variant:normal;font-weight:400;font-stretch:normal;font-size:medium;line-height:normal;font-family:sans-serif;font-variant-ligatures:normal;font-variant-position:normal;font-variant-caps:normal;font-variant-numeric:normal;font-variant-alternates:normal;font-feature-settings:normal;text-indent:0;text-align:start;text-decoration:none;text-decoration-line:none;text-decoration-style:solid;text-decoration-color:#000;letter-spacing:normal;word-spacing:normal;text-transform:none;writing-mode:lr-tb;direction:ltr;text-orientation:mixed;dominant-baseline:auto;baseline-shift:baseline;text-anchor:start;white-space:normal;shape-padding:0;clip-rule:nonzero;display:inline;overflow:visible;visibility:visible;opacity:1;isolation:auto;mix-blend-mode:normal;color-interpolation:sRGB;color-interpolation-filters:linearRGB;solid-color:#000;solid-opacity:1;vector-effect:none;fill:#fff;fill-opacity:1;fill-rule:nonzero;stroke:none;stroke-width:1.0006907;stroke-linecap:round;stroke-linejoin:round;stroke-miterlimit:4;stroke-dasharray:none;stroke-dashoffset:0;stroke-opacity:1;color-rendering:auto;image-rendering:auto;shape-rendering:auto;text-rendering:auto;enable-background:accumulate"/>
</svg>
