<svg xmlns="http://www.w3.org/2000/svg" xmlns:xlink="http://www.w3.org/1999/xlink" width="32" height="32" viewBox="0 0 32 32">
  <defs>
    <linearGradient xlink:href="#a" id="c" x1="21" x2="25" y1="16" y2="28" gradientTransform="translate(-18.615 -18.615)scale(1.53846)" gradientUnits="userSpaceOnUse"/>
    <linearGradient id="a">
      <stop offset="0" style="stop-color:#fff;stop-opacity:1"/>
      <stop offset="1" style="stop-color:#fff;stop-opacity:0"/>
    </linearGradient>
    <filter id="d" width="1.137" height="1.152" x="-.07" y="-.08" style="color-interpolation-filters:sRGB">
      <feGaussianBlur stdDeviation=".457"/>
    </filter>
    <filter id="b" width="1.144" height="1.144" x="-.07" y="-.07" style="color-interpolation-filters:sRGB">
      <feGaussianBlur stdDeviation=".66"/>
    </filter>
  </defs>
  <circle cx="16.5" cy="16.5" r="11" style="opacity:.2;fill:#000;fill-opacity:1;stroke:none;stroke-width:2.19999981;stroke-linecap:round;stroke-linejoin:round;stroke-miterlimit:4;stroke-dasharray:none;stroke-opacity:1;filter:url(#b)"/>
  <circle cx="16" cy="16" r="11" style="opacity:1;fill:#ededed;fill-opacity:1;stroke:none;stroke-width:2.19999981;stroke-linecap:round;stroke-linejoin:round;stroke-miterlimit:4;stroke-dasharray:none;stroke-opacity:1"/>
  <circle cx="16" cy="16" r="10" style="opacity:1;fill:#03adaf;fill-opacity:1;stroke:none;stroke-width:1.99999988;stroke-linecap:round;stroke-linejoin:round;stroke-miterlimit:4;stroke-dasharray:none;stroke-opacity:1"/>
  <path d="M26 16a10 10 0 0 1-10 10A10 10 0 0 1 6 16 10 10 0 0 1 16 6a10 10 0 0 1 10 10" style="opacity:.2;fill:url(#c);fill-opacity:1;stroke:none;stroke-width:3.63636351;stroke-linecap:round;stroke-linejoin:round;stroke-miterlimit:4;stroke-dasharray:none;stroke-opacity:1"/>
  <path d="M19.8 9.276a.498.503 30 0 0-.199.959 6.92 6.92 0 0 1 3.654 4.439 7.1 7.1 0 0 1-.933 5.727.498.503 30 1 0 .832.546q.237-.362.433-.744a8.09 8.09 0 0 0 .63-5.795 7.92 7.92 0 0 0-4.176-5.08.498.503 30 0 0-.24-.052m-9.556 2.546a.499.503 30 0 0-.399.229 8.1 8.1 0 0 0-1.06 6.545 7.94 7.94 0 0 0 4.187 5.082.499.503 30 0 0 .653-.201.499.503 30 0 0-.211-.703 6.94 6.94 0 0 1-3.664-4.446 7.08 7.08 0 0 1 .93-5.728.499.503 30 0 0-.436-.778m4.45.055a.496.498 60 0 0-.216.053 4.99 4.99 0 0 0-2.824 3.283 4.95 4.95 0 0 0 .82 4.24.496.498 60 1 0 .797-.595 3.96 3.96 0 0 1-.652-3.393 3.99 3.99 0 0 1 2.256-2.627.496.498 60 0 0-.18-.96m5.41 1.455a.496.5 60 0 0-.376.81c.727.97.966 2.222.65 3.397a4.01 4.01 0 0 1-2.267 2.633.496.5 60 0 0-.233.711.496.5 60 0 0 .627.197 5.02 5.02 0 0 0 2.838-3.29 4.94 4.94 0 0 0-.814-4.245.496.5 60 0 0-.426-.213" style="color:#000;font-style:normal;font-variant:normal;font-weight:400;font-stretch:normal;font-size:medium;line-height:normal;font-family:sans-serif;font-variant-ligatures:normal;font-variant-position:normal;font-variant-caps:normal;font-variant-numeric:normal;font-variant-alternates:normal;font-feature-settings:normal;text-indent:0;text-align:start;text-decoration:none;text-decoration-line:none;text-decoration-style:solid;text-decoration-color:#000;letter-spacing:normal;word-spacing:normal;text-transform:none;writing-mode:lr-tb;direction:ltr;text-orientation:mixed;dominant-baseline:auto;baseline-shift:baseline;text-anchor:start;white-space:normal;shape-padding:0;clip-rule:nonzero;display:inline;overflow:visible;visibility:visible;opacity:.2;isolation:auto;mix-blend-mode:normal;color-interpolation:sRGB;color-interpolation-filters:linearRGB;solid-color:#000;solid-opacity:1;vector-effect:none;fill:#000;fill-opacity:1;fill-rule:nonzero;stroke:none;stroke-width:1.0006907;stroke-linecap:round;stroke-linejoin:round;stroke-miterlimit:4;stroke-dasharray:none;stroke-dashoffset:0;stroke-opacity:1;color-rendering:auto;image-rendering:auto;shape-rendering:auto;text-rendering:auto;enable-background:accumulate;filter:url(#d)"/>
  <path d="M19.3 8.775a.498.503 30 0 0-.198.96 6.92 6.92 0 0 1 3.654 4.439 7.1 7.1 0 0 1-.934 5.726.498.503 30 1 0 .832.547q.239-.362.434-.744a8.09 8.09 0 0 0 .629-5.795 7.92 7.92 0 0 0-4.176-5.08.498.503 30 0 0-.24-.053m-9.556 2.547a.499.503 30 0 0-.398.229 8.1 8.1 0 0 0-1.06 6.545 7.94 7.94 0 0 0 4.187 5.082.499.503 30 0 0 .652-.201.499.503 30 0 0-.21-.704 6.94 6.94 0 0 1-3.665-4.445 7.08 7.08 0 0 1 .93-5.728.499.503 30 0 0-.436-.778m4.451.055a.496.498 60 0 0-.216.053 4.99 4.99 0 0 0-2.825 3.283 4.95 4.95 0 0 0 .82 4.24.496.498 60 1 0 .797-.596 3.96 3.96 0 0 1-.652-3.392 3.99 3.99 0 0 1 2.256-2.627.496.498 60 0 0-.18-.961m5.409 1.455a.496.5 60 0 0-.375.81c.726.97.965 2.222.65 3.397a4.01 4.01 0 0 1-2.268 2.633.496.5 60 0 0-.232.71.496.5 60 0 0 .627.198 5.02 5.02 0 0 0 2.838-3.29 4.94 4.94 0 0 0-.815-4.245.496.5 60 0 0-.425-.213" style="color:#000;font-style:normal;font-variant:normal;font-weight:400;font-stretch:normal;font-size:medium;line-height:normal;font-family:sans-serif;font-variant-ligatures:normal;font-variant-position:normal;font-variant-caps:normal;font-variant-numeric:normal;font-variant-alternates:normal;font-feature-settings:normal;text-indent:0;text-align:start;text-decoration:none;text-decoration-line:none;text-decoration-style:solid;text-decoration-color:#000;letter-spacing:normal;word-spacing:normal;text-transform:none;writing-mode:lr-tb;direction:ltr;text-orientation:mixed;dominant-baseline:auto;baseline-shift:baseline;text-anchor:start;white-space:normal;shape-padding:0;clip-rule:nonzero;display:inline;overflow:visible;visibility:visible;opacity:1;isolation:auto;mix-blend-mode:normal;color-interpolation:sRGB;color-interpolation-filters:linearRGB;solid-color:#000;solid-opacity:1;vector-effect:none;fill:#fff;fill-opacity:1;fill-rule:nonzero;stroke:none;stroke-width:1.0006907;stroke-linecap:round;stroke-linejoin:round;stroke-miterlimit:4;stroke-dasharray:none;stroke-dashoffset:0;stroke-opacity:1;color-rendering:auto;image-rendering:auto;shape-rendering:auto;text-rendering:auto;enable-background:accumulate"/>
</svg>
