<svg xmlns="http://www.w3.org/2000/svg" xmlns:xlink="http://www.w3.org/1999/xlink" width="32" height="32" viewBox="0 0 32 32">
  <defs>
    <linearGradient xlink:href="#a" id="c" x1="21" x2="25" y1="16" y2="28" gradientTransform="translate(-18.615 -18.615)scale(1.53846)" gradientUnits="userSpaceOnUse"/>
    <linearGradient id="a">
      <stop offset="0" style="stop-color:#fff;stop-opacity:1"/>
      <stop offset="1" style="stop-color:#fff;stop-opacity:0"/>
    </linearGradient>
    <filter id="d" width="1.137" height="1.152" x="-.07" y="-.08" style="color-interpolation-filters:sRGB">
      <feGaussianBlur stdDeviation=".457"/>
    </filter>
    <filter id="b" width="1.144" height="1.144" x="-.07" y="-.07" style="color-interpolation-filters:sRGB">
      <feGaussianBlur stdDeviation=".66"/>
    </filter>
  </defs>
  <circle cx="16.5" cy="16.5" r="11" style="opacity:.2;fill:#000;fill-opacity:1;stroke:none;stroke-width:2.19999981;stroke-linecap:round;stroke-linejoin:round;stroke-miterlimit:4;stroke-dasharray:none;stroke-opacity:1;filter:url(#b)"/>
  <circle cx="16" cy="16" r="11" style="opacity:1;fill:#ededed;fill-opacity:1;stroke:none;stroke-width:2.19999981;stroke-linecap:round;stroke-linejoin:round;stroke-miterlimit:4;stroke-dasharray:none;stroke-opacity:1"/>
  <circle cx="16" cy="16" r="10" style="opacity:1;fill:#03adaf;fill-opacity:1;stroke:none;stroke-width:1.99999988;stroke-linecap:round;stroke-linejoin:round;stroke-miterlimit:4;stroke-dasharray:none;stroke-opacity:1"/>
  <path d="M26 16a10 10 0 0 1-10 10A10 10 0 0 1 6 16 10 10 0 0 1 16 6a10 10 0 0 1 10 10" style="opacity:.2;fill:url(#c);fill-opacity:1;stroke:none;stroke-width:3.63636351;stroke-linecap:round;stroke-linejoin:round;stroke-miterlimit:4;stroke-dasharray:none;stroke-opacity:1"/>
  <path d="M13.18 9.266a.499.503 60 0 0-.217.054 8.09 8.09 0 0 0-4.192 5.137 7.94 7.94 0 0 0 1.086 6.496.499.503 60 0 0 .664.152.499.503 60 0 0 .17-.714 6.95 6.95 0 0 1-.95-5.684 7.08 7.08 0 0 1 3.67-4.494.499.503 60 0 0-.231-.947m9.55 2.568a.498.503 60 0 0-.412.789 6.92 6.92 0 0 1 .946 5.672 7.1 7.1 0 0 1-3.672 4.492.498.504 60 1 0 .447.89q.388-.195.748-.427a8.1 8.1 0 0 0 3.442-4.705 7.91 7.91 0 0 0-1.077-6.485.498.503 60 0 0-.422-.226m-4.41.045a.496.5 30 0 0-.203.965 3.95 3.95 0 0 1 2.262 2.617 4.01 4.01 0 0 1-.649 3.414.496.5 30 0 0 .157.732.496.5 30 0 0 .64-.144 5.02 5.02 0 0 0 .813-4.27 4.94 4.94 0 0 0-2.828-3.267.496.5 30 0 0-.192-.047m-5.459 1.449a.496.498 30 0 0-.396.225 4.99 4.99 0 0 0-.803 4.256 4.95 4.95 0 0 0 2.83 3.261.496.498 30 1 0 .393-.914 3.96 3.96 0 0 1-2.264-2.611 3.99 3.99 0 0 1 .64-3.404.496.498 30 0 0-.4-.813" style="color:#000;font-style:normal;font-variant:normal;font-weight:400;font-stretch:normal;font-size:medium;line-height:normal;font-family:sans-serif;font-variant-ligatures:normal;font-variant-position:normal;font-variant-caps:normal;font-variant-numeric:normal;font-variant-alternates:normal;font-feature-settings:normal;text-indent:0;text-align:start;text-decoration:none;text-decoration-line:none;text-decoration-style:solid;text-decoration-color:#000;letter-spacing:normal;word-spacing:normal;text-transform:none;writing-mode:lr-tb;direction:ltr;text-orientation:mixed;dominant-baseline:auto;baseline-shift:baseline;text-anchor:start;white-space:normal;shape-padding:0;clip-rule:nonzero;display:inline;overflow:visible;visibility:visible;opacity:.2;isolation:auto;mix-blend-mode:normal;color-interpolation:sRGB;color-interpolation-filters:linearRGB;solid-color:#000;solid-opacity:1;vector-effect:none;fill:#000;fill-opacity:1;fill-rule:nonzero;stroke:none;stroke-width:1.0006907;stroke-linecap:round;stroke-linejoin:round;stroke-miterlimit:4;stroke-dasharray:none;stroke-dashoffset:0;stroke-opacity:1;color-rendering:auto;image-rendering:auto;shape-rendering:auto;text-rendering:auto;enable-background:accumulate;filter:url(#d)"/>
  <path d="M12.68 8.766a.499.503 60 0 0-.217.054 8.09 8.09 0 0 0-4.192 5.137 7.94 7.94 0 0 0 1.086 6.496.499.503 60 0 0 .664.152.499.503 60 0 0 .17-.714 6.95 6.95 0 0 1-.95-5.684 7.08 7.08 0 0 1 3.67-4.494.499.503 60 0 0-.231-.947m9.55 2.568a.498.503 60 0 0-.412.789 6.92 6.92 0 0 1 .946 5.672 7.1 7.1 0 0 1-3.672 4.492.498.503 60 1 0 .447.89q.387-.194.748-.427a8.1 8.1 0 0 0 3.442-4.705 7.91 7.91 0 0 0-1.077-6.484.498.503 60 0 0-.422-.227m-4.41.045a.496.5 30 0 0-.203.965 3.95 3.95 0 0 1 2.262 2.617 4.01 4.01 0 0 1-.649 3.414.496.5 30 0 0 .157.732.496.5 30 0 0 .64-.144 5.02 5.02 0 0 0 .813-4.27 4.94 4.94 0 0 0-2.828-3.267.496.5 30 0 0-.192-.047m-5.459 1.45a.496.498 30 0 0-.396.224 4.99 4.99 0 0 0-.803 4.256 4.95 4.95 0 0 0 2.83 3.261.496.498 30 1 0 .393-.914 3.96 3.96 0 0 1-2.264-2.611 3.99 3.99 0 0 1 .64-3.404.496.498 30 0 0-.4-.813" style="color:#000;font-style:normal;font-variant:normal;font-weight:400;font-stretch:normal;font-size:medium;line-height:normal;font-family:sans-serif;font-variant-ligatures:normal;font-variant-position:normal;font-variant-caps:normal;font-variant-numeric:normal;font-variant-alternates:normal;font-feature-settings:normal;text-indent:0;text-align:start;text-decoration:none;text-decoration-line:none;text-decoration-style:solid;text-decoration-color:#000;letter-spacing:normal;word-spacing:normal;text-transform:none;writing-mode:lr-tb;direction:ltr;text-orientation:mixed;dominant-baseline:auto;baseline-shift:baseline;text-anchor:start;white-space:normal;shape-padding:0;clip-rule:nonzero;display:inline;overflow:visible;visibility:visible;opacity:1;isolation:auto;mix-blend-mode:normal;color-interpolation:sRGB;color-interpolation-filters:linearRGB;solid-color:#000;solid-opacity:1;vector-effect:none;fill:#fff;fill-opacity:1;fill-rule:nonzero;stroke:none;stroke-width:1.0006907;stroke-linecap:round;stroke-linejoin:round;stroke-miterlimit:4;stroke-dasharray:none;stroke-dashoffset:0;stroke-opacity:1;color-rendering:auto;image-rendering:auto;shape-rendering:auto;text-rendering:auto;enable-background:accumulate"/>
</svg>
